<?xml version="1.0" encoding="utf-8"?>
<!-- Generator: Adobe Illustrator 28.1.0, SVG Export Plug-In . SVG Version: 6.00 Build 0)  -->
<svg version="1.1" id="Layer_1" xmlns="http://www.w3.org/2000/svg" xmlns:xlink="http://www.w3.org/1999/xlink" x="0px" y="0px"
	 viewBox="0 0 256 256" style="enable-background:new 0 0 256 256;" xml:space="preserve">
<style type="text/css">
	.st0{fill:#C99114;}
	.st1{fill:#993947;}
</style>
<g id="FINAL-HCS-Black_00000072982399855598123970000002609717656177583760_">
	<g>
		<g>
			<path class="st0" d="M131.8,243.8c-42.4,0-76.7-34.4-76.7-76.7c0-40.5,31.4-73.6,71.1-76.5c-1.9-0.1-3.9-0.2-5.8-0.2
				c-14.1,0-27.4,3.5-39,9.8c15.8-17,35.2-26.5,55.6-25.1c9.7,0.7,18.8,3.7,27.1,8.8c2.3,0.4,3.7,0.6,3.9,0.2
				c1.5,0.1,2.6-0.2,3.2-0.9c4-4.8-14.8-27.1-42-49.8C101.9,10.6,76.6-3.9,72.6,0.9c-1.1,1.4-0.4,4.2,1.8,8c2.6,5.4,8.1,18,9.7,32.6
				c0.2-1.5,0.3-3.1,0.5-4.8c1.4-14.5-0.2-14.6,2.1-15.8c2.3-1.2,7.3,0,22.2,11.1c22.1,16.4,31.7,31.9,30.9,31.2
				c-0.8-0.7-13.1-9.5-19.7-14.8c-6.6-5.3-20.4-16.7-27.6-14.1c-2.5,1-3.5,5.6-4.1,10.9c-0.6,5.3-2.7,11.3-7.1,23.5
				C77.4,79.8,63.2,101,60.4,105c-7.3,13.2-14.6,28.5-20,45.9c-0.1,0.4-0.1,0.7-0.1,0.9c-1.4,4.5-2.3,9.3-2.6,14.2
				c-0.1,1.9-0.1,3.7-0.1,5.6c0,0.5,0,1.1,0,1.6c0,45.7,37.1,82.8,82.8,82.8c30.7,0,57.6-16.8,71.8-41.6
				C178.2,232.3,156.4,243.8,131.8,243.8"/>
			<path class="st0" d="M144.7,232.6c-37.8,0-68.4-30.7-68.4-68.5c0-29,18-53.8,43.4-63.8C88,106.2,64,134.1,64,167.6
				c0,37.8,30.6,68.5,68.4,68.5c8.7,0,17-1.6,24.6-4.6C153,232.2,148.9,232.6,144.7,232.6"/>
		</g>
	</g>
</g>
<g>
	<path class="st1" d="M101.2,125.2l12.7-4l13.3,42l6.4-2l-13.3-42l12.7-4l29.8,93.8l-12.7,4l-12.6-39.6l-6.4,2l12.6,39.6l-12.7,4
		L101.2,125.2z"/>
	<path class="st1" d="M194.7,197.4c-1.2,1.9-3,3.2-5.3,3.9c-6.4,2-12.9-0.6-19.5-7.8c-6.6-7.3-12.2-18.5-17.1-33.7
		c-5.4-17-6.7-30.8-3.7-41.3c1.9-6.8,5.2-10.9,9.8-12.4c2.1-0.7,4.4-0.7,6.8-0.2l3.8,11.9c-1.5-0.3-2.9-0.2-4.1,0.2
		c-2.3,0.7-3.9,2.8-4.6,6.3c-1.2,6,0.4,15.9,4.8,29.8c4.7,14.7,8.7,24.1,12.1,28.3c3.4,4.2,6.7,5.8,9.9,4.8c1.2-0.4,2.3-1.1,3.2-2.3
		L194.7,197.4z"/>
	<path class="st1" d="M193.7,184.1c2.2,0.2,4.2,0.1,5.8-0.5c2.3-0.7,3.8-2,4.7-3.9c0.9-1.9,0.8-4.2-0.1-7.1
		c-0.7-2.3-1.7-4.4-2.8-6.3c-2.3-3.8-5.7-8.6-10.4-14.3c-4.6-5.7-8.4-11.1-11.4-16c-1.7-2.8-3.1-6.1-4.3-9.8
		c-2.6-8.1-2.9-14.4-0.9-19.1c2-4.7,5.5-7.8,10.5-9.4c2.3-0.7,5.2-1.1,8.5-1.1l4,12.5c-2-0.3-3.8-0.2-5.2,0.3
		c-2.2,0.7-3.7,2.1-4.6,4.4c-0.9,2.2-0.9,5.1,0.2,8.4c0.7,2.2,1.6,4.3,2.8,6.3c2.2,3.7,5.4,8.2,9.6,13.5c5.2,6.6,9.4,12.6,12.6,18.1
		c1.6,2.8,2.9,5.9,4,9.3c2.1,6.8,2.2,12.5,0,17.1c-2.1,4.7-5.7,7.8-10.6,9.3c-2.2,0.7-5,1-8.5,1L193.7,184.1z"/>
</g>
</svg>
